<?xml version="1.0" encoding="UTF-8" standalone="no"?>
<!DOCTYPE svg PUBLIC "-//W3C//DTD SVG 1.1//EN"
 "http://www.w3.org/Graphics/SVG/1.1/DTD/svg11.dtd">
<!-- Generated by graphviz version 2.26.3 (20100126.1600)
 -->
<!-- Title: G Pages: 1 -->
<svg width="144pt" height="258pt"
 viewBox="0.00 0.00 144.00 258.00" xmlns="http://www.w3.org/2000/svg" xmlns:xlink="http://www.w3.org/1999/xlink">
<g id="graph1" class="graph" transform="scale(1 1) rotate(0) translate(4 254)">
<title>G</title>
<polygon fill="white" stroke="white" points="-4,5 -4,-254 141,-254 141,5 -4,5"/>
<g id="graph2" class="cluster"><title>cluster_Global</title>
<polyline fill="none" stroke="gray" points="20,-8 116,-8 "/>
<path fill="none" stroke="gray" d="M116,-8C122,-8 128,-14 128,-20"/>
<polyline fill="none" stroke="gray" points="128,-20 128,-230 "/>
<path fill="none" stroke="gray" d="M128,-230C128,-236 122,-242 116,-242"/>
<polyline fill="none" stroke="gray" points="116,-242 20,-242 "/>
<path fill="none" stroke="gray" d="M20,-242C14,-242 8,-236 8,-230"/>
<polyline fill="none" stroke="gray" points="8,-230 8,-20 "/>
<path fill="none" stroke="gray" d="M8,-20C8,-14 14,-8 20,-8"/>
<text text-anchor="middle" x="68" y="-228.1" font-family="Times,serif" font-size="11.00" fill="gray">\</text>
</g>
<!-- \\Settings -->
<g id="node2" class="node"><title>\\Settings</title>
<polygon fill="none" stroke="black" points="102,-214 34,-214 34,-178 102,-178 102,-214"/>
<text text-anchor="middle" x="68" y="-192.6" font-family="Courier,monospace" font-size="11.00">Settings</text>
</g>
<!-- \\Core -->
<g id="node3" class="node"><title>\\Core</title>
<polygon fill="none" stroke="black" points="95,-160 41,-160 41,-124 95,-124 95,-160"/>
<text text-anchor="middle" x="68" y="-138.6" font-family="Courier,monospace" font-size="11.00">Core</text>
</g>
<!-- \\Administrator -->
<g id="node4" class="node"><title>\\Administrator</title>
<polygon fill="none" stroke="black" points="120,-106 16,-106 16,-70 120,-70 120,-106"/>
<text text-anchor="middle" x="68" y="-84.6" font-family="Courier,monospace" font-size="11.00">Administrator</text>
</g>
<!-- \\CMF -->
<g id="node5" class="node"><title>\\CMF</title>
<polygon fill="none" stroke="black" points="95,-52 41,-52 41,-16 95,-16 95,-52"/>
<text text-anchor="middle" x="68" y="-30.6" font-family="Courier,monospace" font-size="11.00">CMF</text>
</g>
</g>
</svg>
